<svg width="55" height="53" viewBox="0 0 55 53" fill="none" xmlns="http://www.w3.org/2000/svg">
<path d="M0 22L8.5 4.6H11.1L12.4 7.2L13.7 9.8L19.7 22.1H17.1L12.4 12.4L11.1 9.8L9.9 7.1L2.6 22H0Z" fill="#58C1F5"/>
<path d="M5.1 22L13.6 4.5H16.2L17.5 7.1L18.8 9.7L24.8 22H22.2L17.5 12.3L16.2 9.7L15 7.1L7.7 22H5.1Z" fill="#58C1F5"/>
<path d="M29.0078 4V22H26.8281V4H29.0078ZM34.668 4V22H32.4883V4H34.668ZM42.4141 9.32031L36.8828 15.2383L33.7891 18.4492L33.6133 16.1406L35.8281 13.4922L39.7656 9.32031H42.4141ZM40.4336 22L35.9102 15.9531L37.0352 14.0195L42.9883 22H40.4336ZM48.2148 20.6875L51.7422 9.32031H54.0625L48.9766 23.957C48.8594 24.2695 48.7031 24.6055 48.5078 24.9648C48.3203 25.332 48.0781 25.6797 47.7812 26.0078C47.4844 26.3359 47.125 26.6016 46.7031 26.8047C46.2891 27.0156 45.793 27.1211 45.2148 27.1211C45.043 27.1211 44.8242 27.0977 44.5586 27.0508C44.293 27.0039 44.1055 26.9648 43.9961 26.9336L43.9844 25.1758C44.0469 25.1836 44.1445 25.1914 44.2773 25.1992C44.418 25.2148 44.5156 25.2227 44.5703 25.2227C45.0625 25.2227 45.4805 25.1562 45.8242 25.0234C46.168 24.8984 46.457 24.6836 46.6914 24.3789C46.9336 24.082 47.1406 23.6719 47.3125 23.1484L48.2148 20.6875ZM45.625 9.32031L48.918 19.1641L49.4805 21.4492L47.9219 22.2461L43.2578 9.32031H45.625Z" fill="#58C1F5"/>
<path d="M8.0625 39.0195H3.73828L3.71484 37.2031H7.64062C8.28906 37.2031 8.85547 37.0938 9.33984 36.875C9.82422 36.6562 10.1992 36.3438 10.4648 35.9375C10.7383 35.5234 10.875 35.0312 10.875 34.4609C10.875 33.8359 10.7539 33.3281 10.5117 32.9375C10.2773 32.5391 9.91406 32.25 9.42188 32.0703C8.9375 31.8828 8.32031 31.7891 7.57031 31.7891H4.24219V47H1.98047V29.9375H7.57031C8.44531 29.9375 9.22656 30.0273 9.91406 30.207C10.6016 30.3789 11.1836 30.6523 11.6602 31.0273C12.1445 31.3945 12.5117 31.8633 12.7617 32.4336C13.0117 33.0039 13.1367 33.6875 13.1367 34.4844C13.1367 35.1875 12.957 35.8242 12.5977 36.3945C12.2383 36.957 11.7383 37.418 11.0977 37.7773C10.4648 38.1367 9.72266 38.3672 8.87109 38.4688L8.0625 39.0195ZM7.95703 47H2.84766L4.125 45.1602H7.95703C8.67578 45.1602 9.28516 45.0352 9.78516 44.7852C10.293 44.5352 10.6797 44.1836 10.9453 43.7305C11.2109 43.2695 11.3438 42.7266 11.3438 42.1016C11.3438 41.4688 11.2305 40.9219 11.0039 40.4609C10.7773 40 10.4219 39.6445 9.9375 39.3945C9.45312 39.1445 8.82812 39.0195 8.0625 39.0195H4.83984L4.86328 37.2031H9.26953L9.75 37.8594C10.5703 37.9297 11.2656 38.1641 11.8359 38.5625C12.4062 38.9531 12.8398 39.4531 13.1367 40.0625C13.4414 40.6719 13.5938 41.3438 13.5938 42.0781C13.5938 43.1406 13.3594 44.0391 12.8906 44.7734C12.4297 45.5 11.7773 46.0547 10.9336 46.4375C10.0898 46.8125 9.09766 47 7.95703 47ZM24.082 44.832V38.3047C24.082 37.8047 23.9805 37.3711 23.7773 37.0039C23.582 36.6289 23.2852 36.3398 22.8867 36.1367C22.4883 35.9336 21.9961 35.832 21.4102 35.832C20.8633 35.832 20.3828 35.9258 19.9688 36.1133C19.5625 36.3008 19.2422 36.5469 19.0078 36.8516C18.7812 37.1562 18.668 37.4844 18.668 37.8359H16.5C16.5 37.3828 16.6172 36.9336 16.8516 36.4883C17.0859 36.043 17.4219 35.6406 17.8594 35.2812C18.3047 34.9141 18.8359 34.625 19.4531 34.4141C20.0781 34.1953 20.7734 34.0859 21.5391 34.0859C22.4609 34.0859 23.2734 34.2422 23.9766 34.5547C24.6875 34.8672 25.2422 35.3398 25.6406 35.9727C26.0469 36.5977 26.25 37.3828 26.25 38.3281V44.2344C26.25 44.6562 26.2852 45.1055 26.3555 45.582C26.4336 46.0586 26.5469 46.4688 26.6953 46.8125V47H24.4336C24.3242 46.75 24.2383 46.418 24.1758 46.0039C24.1133 45.582 24.082 45.1914 24.082 44.832ZM24.457 39.3125L24.4805 40.8359H22.2891C21.6719 40.8359 21.1211 40.8867 20.6367 40.9883C20.1523 41.082 19.7461 41.2266 19.418 41.4219C19.0898 41.6172 18.8398 41.8633 18.668 42.1602C18.4961 42.4492 18.4102 42.7891 18.4102 43.1797C18.4102 43.5781 18.5 43.9414 18.6797 44.2695C18.8594 44.5977 19.1289 44.8594 19.4883 45.0547C19.8555 45.2422 20.3047 45.3359 20.8359 45.3359C21.5 45.3359 22.0859 45.1953 22.5938 44.9141C23.1016 44.6328 23.5039 44.2891 23.8008 43.8828C24.1055 43.4766 24.2695 43.082 24.293 42.6992L25.2188 43.7422C25.1641 44.0703 25.0156 44.4336 24.7734 44.832C24.5312 45.2305 24.207 45.6133 23.8008 45.9805C23.4023 46.3398 22.9258 46.6406 22.3711 46.8828C21.8242 47.1172 21.207 47.2344 20.5195 47.2344C19.6602 47.2344 18.9062 47.0664 18.2578 46.7305C17.6172 46.3945 17.1172 45.9453 16.7578 45.3828C16.4062 44.8125 16.2305 44.1758 16.2305 43.4727C16.2305 42.793 16.3633 42.1953 16.6289 41.6797C16.8945 41.1562 17.2773 40.7227 17.7773 40.3789C18.2773 40.0273 18.8789 39.7617 19.582 39.582C20.2852 39.4023 21.0703 39.3125 21.9375 39.3125H24.457ZM31.8281 37.0273V47H29.6602V34.3203H31.7109L31.8281 37.0273ZM31.3125 40.1797L30.4102 40.1445C30.418 39.2773 30.5469 38.4766 30.7969 37.7422C31.0469 37 31.3984 36.3555 31.8516 35.8086C32.3047 35.2617 32.8438 34.8398 33.4688 34.543C34.1016 34.2383 34.8008 34.0859 35.5664 34.0859C36.1914 34.0859 36.7539 34.1719 37.2539 34.3438C37.7539 34.5078 38.1797 34.7734 38.5312 35.1406C38.8906 35.5078 39.1641 35.9844 39.3516 36.5703C39.5391 37.1484 39.6328 37.8555 39.6328 38.6914V47H37.4531V38.668C37.4531 38.0039 37.3555 37.4727 37.1602 37.0742C36.9648 36.668 36.6797 36.375 36.3047 36.1953C35.9297 36.0078 35.4688 35.9141 34.9219 35.9141C34.3828 35.9141 33.8906 36.0273 33.4453 36.2539C33.0078 36.4805 32.6289 36.793 32.3086 37.1914C31.9961 37.5898 31.75 38.0469 31.5703 38.5625C31.3984 39.0703 31.3125 39.6094 31.3125 40.1797ZM45.1055 29V47H42.9258V29H45.1055ZM52.8516 34.3203L47.3203 40.2383L44.2266 43.4492L44.0508 41.1406L46.2656 38.4922L50.2031 34.3203H52.8516ZM50.8711 47L46.3477 40.9531L47.4727 39.0195L53.4258 47H50.8711Z" fill="#58C1F5"/>
</svg>
