<svg width="20" height="21" viewBox="0 0 20 21" fill="none" xmlns="http://www.w3.org/2000/svg">
<path d="M18.3338 9.641V11.3577C18.3338 11.816 17.9672 12.191 17.5005 12.2077H15.8672C14.9672 12.2077 14.1422 11.5493 14.0672 10.6493C14.0172 10.1243 14.2172 9.63267 14.5672 9.291C14.8755 8.97433 15.3005 8.79102 15.7672 8.79102H17.5005C17.9672 8.80768 18.3338 9.18267 18.3338 9.641Z" fill="#C8EE44"/>
<path d="M17.0587 13.4583H15.867C14.2837 13.4583 12.9503 12.2666 12.817 10.75C12.742 9.88329 13.0587 9.01663 13.692 8.39996C14.2253 7.84996 14.967 7.54163 15.767 7.54163H17.0587C17.3003 7.54163 17.5003 7.34163 17.4753 7.09996C17.292 5.07496 15.9503 3.69163 13.9587 3.45829C13.7587 3.42496 13.5503 3.41663 13.3337 3.41663H5.83366C5.60033 3.41663 5.37533 3.43329 5.15866 3.46663C3.03366 3.73329 1.66699 5.31663 1.66699 7.58329V13.4166C1.66699 15.7166 3.53366 17.5833 5.83366 17.5833H13.3337C15.667 17.5833 17.2753 16.125 17.4753 13.9C17.5003 13.6583 17.3003 13.4583 17.0587 13.4583ZM10.8337 8.62496H5.83366C5.49199 8.62496 5.20866 8.34163 5.20866 7.99996C5.20866 7.65829 5.49199 7.37496 5.83366 7.37496H10.8337C11.1753 7.37496 11.4587 7.65829 11.4587 7.99996C11.4587 8.34163 11.1753 8.62496 10.8337 8.62496Z" fill="#C8EE44"/>
</svg>
